<?xml version="1.0" encoding="utf-8"?>
<!-- Generator: Adobe Illustrator 26.0.3, SVG Export Plug-In . SVG Version: 6.00 Build 0)  -->
<svg version="1.1" id="Capa_1" xmlns="http://www.w3.org/2000/svg" xmlns:xlink="http://www.w3.org/1999/xlink" x="0px" y="0px"
	 viewBox="0 0 200 60" style="enable-background:new 0 0 200 60;" xml:space="preserve">
<style type="text/css">
	.st0{fill-rule:evenodd;clip-rule:evenodd;fill:#FFFFFF;}
</style>
<g>
	<path class="st0" d="M194.7,5h-0.5c-0.6,1.1-1.3,2.3-2,3.6c-0.7,1.3-1.4,2.6-2.1,3.9c-0.7,1.3-1.4,2.7-2.1,4
		c-0.7,1.3-1.3,2.5-1.9,3.6c-0.6,1.1-1.1,2.1-1.6,3c-0.3,0.5-0.5,1-0.7,1.4c-0.1,0.2-0.2,0.4-0.3,0.6L173.1,5h-0.6L169,30.5h2.5
		l1.8-18.7l9.3,18.6h0.3l9.5-18.6l1.8,18.7h3.4L194.7,5z M78.9,30.5L89.9,5h0.7c0.2,0.6,0.5,1.1,0.7,1.7l0,0l0,0l0.2,0.5l0.2,0.4
		c0.3,0.6,0.5,1.3,0.8,2c0.2,0.6,0.5,1.2,0.7,1.8l0,0c0.4,1.1,0.9,2.1,1.3,3.2c0.7,1.7,1.4,3.3,2.1,5c0.7,1.7,1.3,3.2,2,4.6
		c0.6,1.4,1.2,2.7,1.7,3.8c0.5,1.1,0.9,2,1.2,2.6h-3.8c-0.2-0.6-0.4-1.2-0.7-2c-0.3-0.8-0.6-1.6-1-2.5c-0.2-0.5-0.4-1-0.6-1.5l0,0
		l0,0c-0.1-0.4-0.3-0.7-0.4-1.1c-0.4-0.9-0.7-1.7-1-2.5h-8.8l-3.8,9.7H78.9z M89.4,9.9l-3.7,9.3h7.7L89.4,9.9z M48.3,5.5v23h9.9v2.1
		H45.1v-25H48.3z M2.4,37.3h195.2v1.5H2.4V37.3z M23.9,46.6c-0.4,0.4-0.8,0.9-1,1.5c-0.2,0.6-0.4,1.3-0.4,2c0,0.8,0.1,1.4,0.4,2
		c0.2,0.6,0.6,1.1,1,1.5c0.4,0.4,1,0.7,1.6,0.9c0.6,0.2,1.3,0.3,2,0.3c0.7,0,1.4-0.1,2-0.3c0.6-0.2,1.1-0.5,1.6-0.9
		c0.4-0.4,0.8-0.9,1-1.5c0.2-0.6,0.4-1.3,0.4-2c0-0.8-0.1-1.4-0.4-2c-0.2-0.6-0.6-1.1-1-1.5c-0.4-0.4-1-0.7-1.6-0.9
		c-0.6-0.2-1.3-0.3-2-0.3c-0.7,0-1.4,0.1-2,0.3C24.9,45.8,24.3,46.1,23.9,46.6z M30.1,46.8c0.3,0.4,0.6,0.8,0.8,1.3
		c0.2,0.5,0.3,1.2,0.3,1.9c0,0.7-0.1,1.4-0.3,1.9c-0.2,0.5-0.4,1-0.8,1.3c-0.3,0.4-0.7,0.6-1.2,0.8c-0.4,0.2-0.9,0.3-1.5,0.3
		c-0.5,0-1-0.1-1.4-0.3c-0.4-0.2-0.8-0.4-1.2-0.8c-0.3-0.4-0.6-0.8-0.8-1.3c-0.2-0.5-0.3-1.2-0.3-1.9c0-0.7,0.1-1.4,0.3-1.9
		c0.2-0.5,0.4-1,0.8-1.3c0.3-0.4,0.7-0.6,1.2-0.8c0.4-0.2,0.9-0.3,1.4-0.3c0.5,0,1,0.1,1.5,0.3C29.4,46.2,29.8,46.5,30.1,46.8z
		 M149.4,48.1c0.2-0.6,0.6-1.1,1-1.5c0.4-0.4,1-0.7,1.6-0.9c0.6-0.2,1.3-0.3,2-0.3c0.7,0,1.4,0.1,2,0.3c0.6,0.2,1.1,0.5,1.6,0.9
		c0.4,0.4,0.8,0.9,1,1.5c0.2,0.6,0.4,1.3,0.4,2c0,0.8-0.1,1.4-0.4,2c-0.2,0.6-0.6,1.1-1,1.5c-0.4,0.4-1,0.7-1.6,0.9
		c-0.6,0.2-1.3,0.3-2,0.3c-0.7,0-1.4-0.1-2-0.3c-0.6-0.2-1.1-0.5-1.6-0.9c-0.4-0.4-0.8-0.9-1-1.5c-0.2-0.6-0.4-1.3-0.4-2
		C149,49.3,149.1,48.7,149.4,48.1z M157.4,48.2c-0.2-0.5-0.4-1-0.8-1.3c-0.3-0.4-0.7-0.6-1.2-0.8c-0.4-0.2-0.9-0.3-1.5-0.3
		c-0.5,0-1,0.1-1.4,0.3c-0.4,0.2-0.8,0.4-1.2,0.8c-0.3,0.4-0.6,0.8-0.8,1.3c-0.2,0.5-0.3,1.2-0.3,1.9c0,0.7,0.1,1.4,0.3,1.9
		c0.2,0.5,0.4,1,0.8,1.3c0.3,0.4,0.7,0.6,1.2,0.8c0.4,0.2,0.9,0.3,1.4,0.3c0.5,0,1-0.1,1.5-0.3c0.4-0.2,0.8-0.4,1.2-0.8
		c0.3-0.4,0.6-0.8,0.8-1.3c0.2-0.5,0.3-1.2,0.3-1.9C157.7,49.4,157.6,48.7,157.4,48.2z M65.8,28.5v-23h-3.2v25h13.1v-2.1H65.8z
		 M28.4,5l-11,25.5h2.4l3.8-9.7h8.8c0.3,0.8,0.7,1.6,1,2.5c0.1,0.4,0.3,0.7,0.4,1.1l0,0c0.2,0.5,0.4,1,0.6,1.5
		c0.3,0.9,0.7,1.7,1,2.5c0.3,0.8,0.5,1.5,0.7,2H40c-0.3-0.6-0.7-1.4-1.2-2.6c-0.5-1.1-1.1-2.4-1.7-3.8c-0.6-1.4-1.3-3-2-4.6
		c-0.7-1.7-1.4-3.3-2.1-5c-0.4-1.1-0.9-2.1-1.3-3.2l0,0l0,0l0,0l0,0l0,0l0,0l0,0c-0.2-0.6-0.5-1.2-0.7-1.7c-0.3-0.7-0.6-1.3-0.8-2
		l0,0l0,0l0,0L30,7.2l-0.2-0.5c-0.2-0.6-0.5-1.2-0.7-1.7H28.4z M24.3,19.2L28,9.9l4,9.3H24.3z M125.6,8.7c1,1,1.7,2.3,2.1,3.8
		c0.4,1.5,0.7,3.2,0.7,5c0,2.4-0.4,4.5-1.2,6.1c-0.8,1.7-1.9,3-3.2,4c-1.3,1-2.7,1.7-4.3,2.2c-1.5,0.4-2.9,0.6-4.2,0.6v0h-9.9v-25
		H117v0c1.9,0,3.5,0.3,4.9,0.8C123.4,6.9,124.6,7.7,125.6,8.7z M121.3,27c1-0.9,1.9-2.1,2.6-3.6c0.7-1.5,1-3.5,1-5.9
		c0-2.1-0.3-3.9-0.8-5.2c-0.5-1.4-1.2-2.4-2.1-3.2c-0.9-0.8-2-1.3-3.2-1.6c-1.2-0.3-2.6-0.5-4.1-0.5c-1.1,0-2.1,0-3,0.1
		c-0.9,0.1-1.8,0.2-2.5,0.3v21.5c0.5,0.1,1.2,0.2,2.1,0.3c0.9,0.1,1.8,0.1,2.7,0.1c1.3,0,2.6-0.2,4-0.5
		C119.1,28.5,120.2,27.9,121.3,27z M136.7,5.5h-3.5v25h3.5V5.5z M161.6,5.5h3l0,14.9v0.3c0,3.6-0.8,6.2-2.5,7.8
		c-1.6,1.6-4.3,2.5-7.9,2.5c-0.1,0-0.1,0-0.2,0c0,0-0.1,0-0.1,0l0,0c-0.1,0-0.2,0-0.3,0c-3.6,0-6.2-0.8-7.9-2.5
		c-1.6-1.7-2.5-4.3-2.5-7.8v-0.3l0-14.9h3v8.3c0,0,0,0.1,0,0.1v0c0,0,0,0.1,0,0.1c0,1.3,0,2.6,0,3.9c0,0.8,0,1.7,0,2.6
		c0,0.9,0.1,1.7,0.3,2.6c0.1,0.8,0.4,1.6,0.7,2.4s0.8,1.4,1.4,2c0.6,0.6,1.4,1,2.3,1.3c0.8,0.3,1.8,0.5,3,0.5c1.2,0,2.2-0.2,3-0.5
		c0.9-0.3,1.7-0.8,2.3-1.3c0.6-0.6,1.1-1.2,1.4-2c0.3-0.8,0.6-1.6,0.7-2.4c0.1-0.8,0.2-1.7,0.3-2.6c0-0.9,0-1.7,0-2.6
		c0-1.4,0-2.7,0-3.9c0,0,0-0.1,0-0.1c0,0,0-0.1,0-0.1V5.5z M9.1,49.4v-4h1.3v9.3H9.1l0-4.7H3.8v4.6h0v0c-0.1,0-0.1,0-0.2,0l0,0h0h0
		h0h0h0h0h0h0l0,0h0c-0.1,0-0.1,0-0.2,0H2.9c-0.1,0-0.3,0-0.4,0v0v-9.2h1.3v4H9.1z M50,46.3v-0.8h-6.9v0.8h2.8v8.4l1.1,0
		c0,0,0,0,0.1,0v0h0.1v-8.3v-0.1L50,46.3L50,46.3z M63,53.4c0,0.2,0,0.4,0,0.6v0h3.6v0.8h-4.8v-9.3H62H62h0.2h0.7h0.8h2.8v0.8h-3.5
		c0,0.2,0,0.4,0,0.6c0,0.3,0,0.6,0,0.9c0,0.4,0,0.7,0,1c0,0.3,0,0.5,0,0.6h3.2v0.8H63c0,0,0,0.1,0,0.1c0,0.1,0,0.2,0,0.4v0v0.5v0.8
		v0C63,52.6,63,53,63,53.4z M80.1,53.9l0-8.5h-1.3v9.3h4.9v-0.8H80.1z M117.5,50.5h1.2v0c0,0,0,0,0,0c0,0.2,0,0.5,0,1v2.8
		c-0.2,0.1-0.4,0.1-0.7,0.2c-0.3,0.1-0.6,0.1-0.9,0.2c-0.3,0.1-0.6,0.1-0.9,0.1c-0.3,0-0.6,0.1-0.9,0.1c-0.8,0-1.5-0.1-2.1-0.3
		c-0.6-0.2-1.2-0.5-1.6-0.9c-0.4-0.4-0.8-0.9-1-1.5c-0.2-0.6-0.4-1.3-0.4-2.1c0-0.8,0.1-1.4,0.4-2c0.2-0.6,0.6-1.1,1.1-1.5
		c0.5-0.4,1-0.7,1.6-0.9c0.6-0.2,1.4-0.3,2.1-0.3c0.5,0,0.9,0,1.2,0.1c0.4,0,0.7,0.1,0.9,0.2c0.3,0.1,0.5,0.2,0.7,0.3
		c0.2,0.1,0.4,0.2,0.5,0.3l-0.3,1h-0.2c-0.1-0.2-0.3-0.3-0.5-0.5c-0.2-0.2-0.4-0.3-0.7-0.4c-0.2-0.1-0.5-0.2-0.8-0.3
		c-0.3-0.1-0.6-0.1-1-0.1c-0.5,0-1.1,0.1-1.5,0.3c-0.5,0.2-0.9,0.4-1.2,0.8c-0.4,0.4-0.6,0.8-0.8,1.3c-0.2,0.5-0.3,1.2-0.3,1.9
		c0,0.7,0.1,1.3,0.3,1.8c0.2,0.5,0.4,1,0.8,1.3c0.3,0.4,0.8,0.6,1.3,0.8c0.5,0.2,1.1,0.3,1.7,0.3c0.2,0,0.4,0,0.6,0
		c0.2,0,0.4,0,0.6-0.1c0.2,0,0.4-0.1,0.5-0.1c0.1,0,0.3-0.1,0.4-0.2V50.5z M137.4,54.2c-0.2-0.2-0.4-0.5-0.7-0.8
		c-0.1-0.1-0.2-0.2-0.2-0.3c-0.2-0.2-0.3-0.4-0.5-0.6c-0.2-0.2-0.3-0.4-0.5-0.6l-0.2-0.3c-0.2-0.3-0.4-0.6-0.6-0.8
		c-0.1-0.1-0.2-0.3-0.3-0.4v0c-0.1-0.1-0.1-0.1-0.2-0.2c0.3,0,0.5-0.1,0.9-0.2c0.3-0.1,0.6-0.3,0.9-0.5c0.3-0.2,0.5-0.5,0.7-0.8
		s0.3-0.7,0.3-1.1c0-0.4-0.1-0.7-0.2-1c-0.1-0.3-0.3-0.5-0.6-0.6c-0.2-0.2-0.5-0.3-0.9-0.4c-0.2,0-0.5-0.1-0.7-0.1l0,0h-2.1h-1.3
		v9.3h1.3v-4.4h0.4c0.3,0.3,0.6,0.7,0.9,1.1c0.3,0.4,0.7,0.9,1,1.3c0.3,0.4,0.6,0.8,0.9,1.2l0.2,0.3l0,0c0.2,0.2,0.3,0.4,0.4,0.6
		h1.6C137.8,54.6,137.6,54.4,137.4,54.2z M133.3,49.8c-0.2,0-0.3,0-0.5,0c-0.1,0-0.2,0-0.3,0V46l0.1,0c0.1,0,0.3,0,0.4,0
		c0.2,0,0.5,0,0.8,0c0.2,0,0.5,0,0.7,0.1c0.2,0,0.5,0.1,0.7,0.3c0.2,0.1,0.4,0.3,0.5,0.5c0.1,0.2,0.2,0.5,0.2,0.9
		c0,0.4-0.1,0.7-0.2,1c-0.2,0.3-0.4,0.5-0.6,0.6c-0.2,0.2-0.5,0.3-0.8,0.3C133.8,49.8,133.5,49.8,133.3,49.8z M197,46.2
		c0.2,0.2,0.3,0.4,0.4,0.6c0.1,0.3,0.2,0.6,0.2,0.9c0,0.6-0.1,1.1-0.4,1.4c-0.3,0.4-0.6,0.7-0.9,0.9c-0.4,0.2-0.8,0.3-1.2,0.4
		c-0.4,0.1-0.8,0.1-1.1,0.1c-0.2,0-0.4,0-0.6,0c-0.1,0-0.3,0-0.4,0v3.6v0.5h-1.3v-0.5v-8.7h2.9h0.1c0.1,0,0.2,0,0.4,0l0,0l0.1,0
		c0.2,0,0.4,0,0.6,0.1c0.2,0,0.4,0.1,0.6,0.2C196.7,45.9,196.9,46,197,46.2z M195.6,49.6c0.3-0.2,0.4-0.4,0.6-0.7
		c0.2-0.3,0.2-0.7,0.2-1.1c0-0.4-0.1-0.7-0.2-0.9c-0.1-0.2-0.3-0.4-0.4-0.6c-0.2-0.1-0.4-0.2-0.7-0.3c-0.3,0-0.6-0.1-0.9-0.1h-1.1v4
		c0.3,0.1,0.5,0.1,0.8,0.1c0.3,0,0.6,0,0.9-0.1C195,49.9,195.3,49.8,195.6,49.6z M17.9,9.1c-0.3-0.7-0.7-1.3-1.1-1.7
		c-0.5-0.5-1-0.8-1.6-1.1C14.6,6,14,5.9,13.5,5.7c-0.6-0.1-1.2-0.2-1.7-0.2l-0.1,0c-0.3,0-0.6,0-0.8,0v0H2.5v25h3.2v-1.8h0v-7.6v-2
		c0.5,0,0.9,0.1,1.4,0.1c0.5,0,1,0,1.5,0c0.9,0,1.9-0.1,3-0.3c1.1-0.2,2.2-0.6,3.2-1.1c1-0.6,1.8-1.3,2.5-2.3s1-2.3,1-3.9
		C18.3,10.6,18.2,9.8,17.9,9.1z M14.4,14.9c-0.4,0.8-1,1.4-1.6,1.9c-0.7,0.5-1.4,0.8-2.2,0.9C9.8,17.9,9,18,8.3,18
		c-0.9,0-1.7-0.1-2.6-0.3V6.8H9c0.9,0,1.8,0.1,2.5,0.2c0.7,0.1,1.4,0.4,1.9,0.7c0.5,0.4,0.9,0.9,1.2,1.5c0.3,0.7,0.4,1.5,0.4,2.6
		C15,13.1,14.8,14.1,14.4,14.9z M178.2,45.8v-0.3h0.6v0v0.3v5.3c0,0.6-0.1,1.1-0.3,1.6c-0.2,0.5-0.4,0.9-0.7,1.2
		c-0.3,0.3-0.7,0.6-1.2,0.8c-0.5,0.2-1,0.3-1.6,0.3c-1.3,0-2.3-0.3-2.9-0.9c-0.6-0.6-0.9-1.5-0.9-2.6v-6h1.2l0,5.8
		c0,0.3,0,0.5,0.1,0.8c0.1,0.3,0.1,0.6,0.3,0.9c0.1,0.3,0.3,0.5,0.5,0.7c0.2,0.2,0.5,0.4,0.8,0.5c0.3,0.1,0.8,0.2,1.3,0.2
		c0.5,0,0.9-0.1,1.2-0.2c0.3-0.2,0.6-0.3,0.8-0.6c0.2-0.2,0.4-0.5,0.5-0.8c0.1-0.3,0.2-0.6,0.3-1c0.1-0.3,0.1-0.7,0.1-1
		c0-0.1,0-0.2,0-0.2v0c0-0.2,0-0.5,0-0.7c0-1,0-1.8,0-2.4V45.8z"/>
</g>
</svg>
